Information

Sport: Basketball
Event: NBA Playoffs
Ripper: Volk
Language: Italian / English (Dual Audio)
Length: 1:53:27
Video: 1920x1080, 25.000 fps, 9 738 Kbps
Audio: 48.0 KHz, AC3, 2 channels, 192 Kbps

Full MediaInfo Information:

General
ID                               : 16 (0x10)
Format                           : MPEG-TS
File size                        : 8.44 GiB
Duration                         : 1h 53mn
Overall bit rate                 : 10.7 Mbps

Video
ID                               : 169 (0xA9)
Menu ID                          : 11024 (0x2B10)
Format                           : AVC
Format/Info                      : Advanced Video Codec
Format profile                   : Main@L4.0
Format settings, CABAC           : Yes
Format settings, ReFrames        : 4 frames
Codec ID                         : 27
Duration                         : 1h 53mn
Bit rate                         : 9 738 Kbps
Width                            : 1 920 pixels
Height                           : 1 080 pixels
Display aspect ratio             : 16:9
Frame rate                       : 25.000 fps
Standard                         : PAL
Color space                      : YUV
Chroma subsampling               : 4:2:0
Bit depth                        : 8 bits
Scan type                        : MBAFF
Bits/(Pixel*Frame)               : 0.188
Stream size                      : 7.72 GiB (91%)
Color primaries                  : BT.709-5, BT.1361, IEC 61966-2-4, SMPTE RP177
Transfer characteristics         : BT.709-5, BT.1361
Matrix coefficients              : BT.709-5, BT.1361, IEC 61966-2-4 709, SMPTE RP177

Audio #1
ID                               : 448 (0x1C0)
Menu ID                          : 11024 (0x2B10)
Format                           : AC-3
Format/Info                      : Audio Coding 3
Mode extension                   : CM (complete main)
Codec ID                         : 6
Duration                         : 1h 53mn
Bit rate mode                    : Constant
Bit rate                         : 192 Kbps
Channel(s)                       : 2 channels
Channel positions                : Front: L R
Sampling rate                    : 48.0 KHz
Bit depth                        : 16 bits
Compression mode                 : Lossy
Delay relative to video          : 29ms
Stream size                      : 156 MiB (2%)
Language                         : Italian
Language, more info              : Clean effects

Audio #2
ID                               : 449 (0x1C1)
Menu ID                          : 11024 (0x2B10)
Format                           : AC-3
Format/Info                      : Audio Coding 3
Mode extension                   : CM (complete main)
Codec ID                         : 6
Duration                         : 1h 53mn
Bit rate mode                    : Constant
Bit rate                         : 192 Kbps
Channel(s)                       : 2 channels
Channel positions                : Front: L R
Sampling rate                    : 48.0 KHz
Bit depth                        : 16 bits
Compression mode                 : Lossy
Delay relative to video          : 12ms
Stream size                      : 156 MiB (2%)
Language                         : English
Language, more info              : Clean effects